HIERARCHY
ROOT SpineBase
{
  OFFSET 0.000000 0.000000 0.000000
  CHANNELS 6 Xposition Yposition Zposition Zrotation Xrotation Yrotation
  JOINT SpineMid
  {
    OFFSET -0.000000 27.140157 0.000000
    CHANNELS 3 Zrotation Xrotation Yrotation
    JOINT SpineShoulder
    {
      OFFSET -0.023083 20.129722 -0.679095
      CHANNELS 3 Zrotation Xrotation Yrotation
      JOINT Neck
      {
        OFFSET -0.028401 6.662626 -0.528970
        CHANNELS 3 Zrotation Xrotation Yrotation
        JOINT Head
        {
          OFFSET 1.124235 12.423892 -0.374852
          CHANNELS 3 Zrotation Xrotation Yrotation
          End Site
          {
            OFFSET 0 0 0
          }
        }
      }
      JOINT ShoulderLeft
      {
        OFFSET -11.559694 -3.501399 -7.811301
        CHANNELS 3 Zrotation Xrotation Yrotation
        JOINT ElbowLeft
        {
          OFFSET -0.074887 -21.224208 -4.326936
          CHANNELS 3 Zrotation Xrotation Yrotation
          JOINT WristLeft
          {
            OFFSET 17.693891 -20.238583 -0.798907
            CHANNELS 3 Zrotation Xrotation Yrotation
            JOINT HandLeft
            {
              OFFSET 1.566817 -2.520507 0.651529
              CHANNELS 3 Zrotation Xrotation Yrotation
              JOINT HandTipLeft
              {
                OFFSET 1.237492 -3.293829 0.524574
                CHANNELS 3 Zrotation Xrotation Yrotation
                End Site
                {
                  OFFSET 0 0 0
                }
              }
              JOINT ThumbLeft
              {
                OFFSET -3.373330 -1.521219 -2.441667
                CHANNELS 3 Zrotation Xrotation Yrotation
                End Site
                {
                  OFFSET 0 0 0
                }
              }
            }
          }
        }
      }
      JOINT ShoulderRight
      {
        OFFSET 11.990796 -2.971426 2.928999
        CHANNELS 3 Zrotation Xrotation Yrotation
        JOINT ElbowRight
        {
          OFFSET 2.950857 -24.919855 -1.430188
          CHANNELS 3 Zrotation Xrotation Yrotation
          JOINT WristRight
          {
            OFFSET -2.904259 -17.856277 -13.083509
            CHANNELS 3 Zrotation Xrotation Yrotation
            JOINT HandRight
            {
              OFFSET -4.135062 -1.389854 -0.946492
              CHANNELS 3 Zrotation Xrotation Yrotation
              JOINT HandTipRight
              {
                OFFSET -1.853181 -2.491610 -1.329400
                CHANNELS 3 Zrotation Xrotation Yrotation
                End Site
                {
                  OFFSET 0 0 0
                }
              }
              JOINT ThumbRight
              {
                OFFSET -3.045710 0.347849 -2.779149
                CHANNELS 3 Zrotation Xrotation Yrotation
                End Site
                {
                  OFFSET 0 0 0
                }
              }
            }
          }
        }
      }
    }
  }
  JOINT HipLeft
  {
    OFFSET -5.773973 1.199911 -5.730353
    CHANNELS 3 Zrotation Xrotation Yrotation
    JOINT KneeLeft
    {
      OFFSET -1.093364 -29.990077 4.881919
      CHANNELS 3 Zrotation Xrotation Yrotation
      JOINT AnkleLeft
      {
        OFFSET 0.212874 -32.254278 10.150947
        CHANNELS 3 Zrotation Xrotation Yrotation
        JOINT FootLeft
        {
          OFFSET 3.909412 -5.622033 -1.827221
          CHANNELS 3 Zrotation Xrotation Yrotation
          End Site
          {
            OFFSET 0 0 0
          }
        }
      }
    }
  }
  JOINT HipRight
  {
    OFFSET 5.426015 -0.113925 -0.625310
    CHANNELS 3 Zrotation Xrotation Yrotation
    JOINT KneeRight
    {
      OFFSET 0.916723 -27.920137 6.395432
      CHANNELS 3 Zrotation Xrotation Yrotation
      JOINT AnkleRight
      {
        OFFSET -3.509847 -33.739449 8.684541
        CHANNELS 3 Zrotation Xrotation Yrotation
        JOINT FootRight
        {
          OFFSET 3.666253 -3.440424 -5.305035
          CHANNELS 3 Zrotation Xrotation Yrotation
          End Site
          {
            OFFSET 0 0 0
          }
        }
      }
    }
  }
}
MOTION
Frames: 6
Frame Time: 0.033333
21.088868 67.640428 369.976003 0.000000 0.000000 -24.503874 -0.000000 0.000000 24.503874 -0.000000 0.000000 0.000000 -0.000000 0.000000 0.000000 0.000000 0.000000 0.000000 -0.000000 0.000000 0.000000 -0.000000 0.000000 0.000000 -0.000000 0.000000 0.000000 -0.000000 0.000000 0.000000 0.000000 0.000000 0.000000 0.000000 0.000000 0.000000 -0.000000 0.000000 0.000000 -0.000000 0.000000 0.000000 -0.000000 0.000000 0.000000 -0.000000 0.000000 0.000000 0.000000 0.000000 0.000000 0.000000 0.000000 0.000000 -0.000000 0.000000 24.503874 -0.000000 0.000000 0.000000 -0.000000 0.000000 0.000000 0.000000 0.000000 0.000000 -0.000000 0.000000 24.503874 -0.000000 0.000000 0.000000 -0.000000 0.000000 0.000000 0.000000 0.000000 0.000000
21.129582 67.580521 370.010423 -0.027273 0.003314 -24.428712 0.026202 0.008262 24.428711 -0.000000 0.000000 0.000000 -0.000000 0.000000 0.000000 0.000000 0.000000 0.000000 -0.000000 0.000000 0.000000 -0.000000 0.000000 0.000000 -0.000000 0.000000 0.000000 2.600817 1.117236 0.803058 0.000000 0.000000 0.000000 0.000000 0.000000 0.000000 -0.016939 -1.075952 -0.126669 1.136115 -0.592960 -0.432523 5.396899 1.550682 -4.386225 -7.418905 1.910263 3.410128 0.000000 0.000000 0.000000 0.000000 0.000000 0.000000 0.026202 0.008262 24.428711 -0.000000 0.000000 0.000000 1.613211 10.371600 6.306729 0.000000 0.000000 0.000000 0.026202 0.008262 24.428711 -0.000000 0.000000 0.000000 -5.638234 -0.590524 8.543976 0.000000 0.000000 0.000000
21.160691 67.536049 370.048693 -0.054107 -0.007107 -24.379257 0.046349 0.028807 24.379242 -0.000000 0.000000 0.000000 -0.000000 0.000000 0.000000 0.000000 0.000000 0.000000 -0.000000 0.000000 0.000000 -0.000000 0.000000 0.000000 -0.000000 0.000000 0.000000 4.778227 2.269700 1.500674 0.000000 0.000000 0.000000 0.000000 0.000000 0.000000 -0.026139 -2.083895 -0.246028 2.014390 -0.753575 -0.791672 9.635825 2.307728 -8.085079 -12.711994 2.480285 6.128744 0.000000 0.000000 0.000000 0.000000 0.000000 0.000000 0.046349 0.028807 24.379242 1.057411 -0.082794 0.332915 1.328764 17.945173 10.349628 0.000000 0.000000 0.000000 0.046349 0.028807 24.379242 -0.000000 0.000000 0.000000 -9.682359 -1.081228 15.237766 0.000000 0.000000 0.000000
21.182196 67.507012 370.090812 -0.080524 -0.031254 -24.355902 0.060468 0.061681 24.355848 -0.000000 0.000000 0.000000 0.909763 -0.456086 0.072386 0.000000 0.000000 0.000000 -0.000000 0.000000 0.000000 0.305924 -0.653999 -0.580875 -0.312558 0.650855 0.584397 6.506567 3.433995 2.097616 0.000000 0.000000 0.000000 0.000000 0.000000 0.000000 -0.025843 -2.996371 -0.354626 2.627572 -0.486016 -1.076537 12.918186 2.443782 -11.036582 -16.133011 2.377321 8.167478 0.000000 0.000000 0.000000 0.000000 0.000000 0.000000 0.060468 0.061681 24.355848 1.402744 -0.110310 0.441939 1.451914 22.653078 12.860889 0.000000 0.000000 0.000000 0.060468 0.061681 24.355848 -0.000000 0.000000 0.000000 -12.161045 -1.032363 19.979296 0.000000 0.000000 0.000000
21.194095 67.493411 370.136780 -0.106540 -0.069140 -24.358905 0.068539 0.106928 24.358777 -0.000000 0.000000 0.000000 1.081590 -0.554032 0.088061 0.000000 0.000000 0.000000 -0.431733 -0.819527 0.087948 0.648246 0.186377 -0.656380 1.131622 1.313198 1.302420 6.456365 3.840283 1.925217 0.000000 0.000000 0.000000 0.000000 0.000000 0.000000 -0.014420 -3.786485 -0.449041 2.972038 0.196546 -1.282503 15.466277 2.072150 -13.278635 -17.946250 1.945993 9.643674 0.000000 0.000000 0.000000 0.000000 0.000000 0.000000 0.068539 0.106928 24.358777 1.626595 -0.129640 0.512701 1.805254 24.916360 13.821898 0.000000 0.000000 0.000000 0.068539 0.106928 24.358777 -0.000000 0.000000 0.000000 -13.297629 -0.243941 22.964069 0.000000 0.000000 0.000000
21.196390 67.495245 370.186599 -0.132177 -0.120797 -24.388379 0.070503 0.164596 24.388138 -0.000000 0.000000 0.000000 1.188371 -0.625349 0.099007 0.000000 0.000000 0.000000 -0.463878 -0.959231 0.094231 0.465520 0.958436 -0.102008 2.558401 1.505301 1.547290 6.105882 4.065029 1.643863 0.000000 0.000000 0.000000 0.000000 0.000000 0.000000 0.009450 -4.429746 -0.526141 3.046138 1.275585 -1.401454 17.468556 1.259117 -14.879936 -18.357210 1.352232 10.679289 0.000000 0.000000 0.000000 0.000000 0.000000 0.000000 0.070503 0.164596 24.388138 1.729335 -0.141265 0.545221 2.546769 24.973828 13.344201 0.000000 0.000000 0.000000 0.070503 0.164596 24.388138 -0.000000 0.000000 0.000000 -13.293915 1.318121 24.412089 0.000000 0.000000 0.000000
